<svg xmlns="http://www.w3.org/2000/svg" viewBox="0 0 760 458" width="760" height="458" class="d-mand">
<style>
.d-mand text{font-family:-apple-system,BlinkMacSystemFont,"Segoe UI",Roboto,Helvetica,Arial,sans-serif;fill:#0C0C0F}
.d-mand .lbl{font-size:10px;font-weight:700;letter-spacing:.09em;fill:#6E6E73}
.d-mand .st{font-size:13px;font-weight:600}
.d-mand .sm{font-size:11.5px;fill:#57575B}
.d-mand .fa{font-size:10.5px;fill:#6E6E73}
.d-mand .mo{font-family:ui-monospace,SFMono-Regular,Menlo,monospace;font-size:11px;fill:#3C3C43}
.d-mand .mos{font-family:ui-monospace,SFMono-Regular,Menlo,monospace;font-size:10px;fill:#57575B}
.d-mand .i-st{fill:#FFFFFF}
.d-mand .i-sm{fill:#6E6E73}
.d-mand .no{fill:#B42318;font-size:10.5px}
.d-mand .nob{fill:#B42318;font-size:11.5px;font-weight:600}

.d-mand .hdt{font-size:18px;font-weight:700;letter-spacing:-.022em;fill:#1D1D1F}
.d-mand .hdk{font-size:10.5px;font-weight:700;letter-spacing:.12em;fill:#6E6E73}
.d-mand .ico{fill:none;stroke:#0C0C0F;stroke-width:1.7;stroke-linecap:round;stroke-linejoin:round}
</style>
<defs>
<marker id="ma" viewBox="0 0 8 8" refX="7" refY="4" markerWidth="6.5" markerHeight="6.5" orient="auto">
<path d="M0 0.5 L7.5 4 L0 7.5 Z" fill="#6E6E73"/>
</marker>
<marker id="mb" viewBox="0 0 8 8" refX="7" refY="4" markerWidth="6.5" markerHeight="6.5" orient="auto">
<path d="M0 0.5 L7.5 4 L0 7.5 Z" fill="#F5CFCA"/>
</marker>
</defs>
<rect width="760" height="458" fill="#FFFFFF"/>
<!-- header -->
<rect x="24" y="16" width="56" height="56" rx="16" fill="#22D3EE" fill-opacity="0.16" stroke="#A5E9F4"/><g class="ico" transform="translate(36,28) scale(1.3333)"><rect x="3.8" y="8" width="16.4" height="12.4" rx="3.4"/><path d="M12 3.6V8"/><circle cx="12" cy="2.6" r="1.4"/><path d="M9 13v2.2"/><path d="M15 13v2.2"/></g><text class="hdk" x="98" y="36">DIAGRAM</text><text class="hdt" x="98" y="60">Agent mandate</text><rect x="24" y="92" width="712" height="1" fill="#E2E4E9"/>
<g transform="translate(0,92)">

<rect x="24" y="16" width="150" height="60" rx="10" fill="#F0F2F8" stroke="#D2D5DB"/>
<text class="st" x="42" y="40">Agent</text>
<text class="fa" x="42" y="60">automated operator</text>

<path d="M182 46 L216 46" stroke="#6E6E73" stroke-width="1.3" marker-end="url(#ma)" fill="none"/>
<text class="mos" x="186" y="38">acts</text>

<rect x="224" y="16" width="512" height="60" rx="10" fill="#0C0C0F"/>
<text class="lbl i-sm" x="244" y="40">AGENTAUTHORITY · CHECKED BEFORE ANY STATE CHANGES</text>
<text class="mo i-sm" x="244" y="62">check(mandate, scope, token, counterparty, amount) → (bool, reason)</text>

<!-- the mandate -->
<text class="lbl" x="24" y="112">WHAT A MANDATE BOUNDS</text>
<rect x="24" y="124" width="230" height="118" rx="10" fill="#FFFFFF" stroke="#E2E4E9"/>
<text class="mos" x="42" y="148">scopes[]         which actions</text>
<text class="mos" x="42" y="168">tokens[]         which assets</text>
<text class="mos" x="42" y="188">counterparties[] whom with</text>
<text class="mos" x="42" y="208">maxPerAction     per call</text>
<text class="mos" x="42" y="228">maxPerEpoch      per window</text>

<rect x="266" y="124" width="230" height="118" rx="10" fill="#F5F5F7" stroke="#D2D5DB"/>
<text class="st" x="284" y="148">Every mandate expires</text>
<text class="sm" x="284" y="170">There is no perpetual mandate</text>
<text class="sm" x="284" y="186">in the type — it is a required</text>
<text class="sm" x="284" y="202">field, not a default.</text>
<text class="mos" x="284" y="228">revoke() takes effect next call</text>

<rect x="508" y="124" width="228" height="118" rx="10" fill="#FFFFFF" stroke="#E2E4E9"/>
<text class="lbl" x="526" y="148">NO SCOPE EVER GRANTS</text>
<text class="no" x="526" y="170">minting · role changes</text>
<text class="no" x="526" y="190">upgrades · freezing</text>
<text class="no" x="526" y="210">seizure · pause</text>
<text class="fa" x="526" y="232">Not configurable. Absent from the type.</text>

<!-- outcome -->
<rect x="24" y="262" width="348" height="86" rx="10" fill="#FFFFFF" stroke="#E2E4E9"/>
<text class="st" x="44" y="286">Inside the mandate</text>
<text class="mo" x="44" y="308">consume(mandate, amount) · action proceeds</text>
<text class="fa" x="44" y="330">AgentActed logged with principal, selector, token, amount.</text>

<rect x="388" y="262" width="348" height="86" rx="10" fill="#FFFFFF" stroke="#F5CFCA"/>
<text class="nob" x="408" y="286">Outside it</text>
<text class="mo" x="408" y="308">reverts before any state change</text>
<text class="fa" x="408" y="330">The agent is not trusted to respect its mandate. It cannot exceed it.</text></g>
</svg>
